<svg width="538" height="729" viewBox="0 0 538 729" fill="none" xmlns="http://www.w3.org/2000/svg">
<path fill-rule="evenodd" clip-rule="evenodd" d="M441.552 169.232H273.161V158.706C273.161 156.423 275.212 154.572 277.741 154.572H436.972C439.501 154.572 441.552 156.423 441.552 158.706V169.232Z" fill="#253368"/>
<path fill-rule="evenodd" clip-rule="evenodd" d="M284.969 161.455C284.969 162.888 283.69 164.05 282.112 164.05C280.534 164.05 279.256 162.888 279.256 161.455C279.256 160.022 280.534 158.86 282.112 158.86C283.69 158.86 284.969 160.022 284.969 161.455Z" fill="#FF7946"/>
<path fill-rule="evenodd" clip-rule="evenodd" d="M295.634 161.455C295.634 162.888 294.355 164.05 292.777 164.05C291.2 164.05 289.921 162.888 289.921 161.455C289.921 160.022 291.2 158.86 292.777 158.86C294.355 158.86 295.634 160.022 295.634 161.455Z" fill="#FAAD14"/>
<path fill-rule="evenodd" clip-rule="evenodd" d="M306.299 161.455C306.299 162.888 305.021 164.05 303.443 164.05C301.865 164.05 300.587 162.888 300.587 161.455C300.587 160.022 301.865 158.86 303.443 158.86C305.021 158.86 306.299 160.022 306.299 161.455Z" fill="#7CB305"/>
<path fill-rule="evenodd" clip-rule="evenodd" d="M278.099 274.087C275.278 274.087 272.992 272.184 272.992 269.836V168.616H441.609V269.836C441.609 272.184 439.322 274.087 436.502 274.087H278.099Z" fill="#E4EBF7"/>
<path d="M429.693 176.351H286.426C285.299 176.351 284.385 177.197 284.385 178.241V263.056C284.385 264.1 285.299 264.946 286.426 264.946H429.693C430.821 264.946 431.735 264.1 431.735 263.056V178.241C431.735 177.197 430.821 176.351 429.693 176.351Z" fill="white"/>
<path d="M411.227 195.336H338.312C337.473 195.336 336.793 195.965 336.793 196.742V203.773C336.793 204.55 337.473 205.179 338.312 205.179H411.227C412.066 205.179 412.746 204.55 412.746 203.773V196.742C412.746 195.965 412.066 195.336 411.227 195.336Z" fill="#FAAD14"/>
<path d="M411.227 229.789H383.884C383.045 229.789 382.365 230.419 382.365 231.196V238.227C382.365 239.004 383.045 239.633 383.884 239.633H411.227C412.066 239.633 412.746 239.004 412.746 238.227V231.196C412.746 230.419 412.066 229.789 411.227 229.789Z" fill="#FF7946"/>
<path d="M411.227 214.32H383.884C383.045 214.32 382.365 214.95 382.365 215.727V222.758C382.365 223.535 383.045 224.164 383.884 224.164H411.227C412.066 224.164 412.746 223.535 412.746 222.758V215.727C412.746 214.95 412.066 214.32 411.227 214.32Z" fill="#597EF7"/>
<path fill-rule="evenodd" clip-rule="evenodd" d="M317.999 196.039H325.964L343.629 238.93H336.113L331.81 227.877H312.09L307.786 238.93H300.335L317.999 196.039ZM314.007 222.758H329.197L321.76 203.773H321.507L314.007 222.758ZM360.853 212.914C364.43 212.914 367.065 213.797 368.76 215.561C370.219 217.094 370.972 219.324 370.972 222.25V237.577H366.359V234.186C365.418 235.394 364.242 236.369 362.83 237.066C361.229 237.809 359.347 238.227 357.182 238.227C354.64 238.227 352.663 237.577 351.251 236.323C349.698 235.069 348.945 233.443 348.945 231.446C348.945 228.752 350.028 226.662 352.193 225.222C354.17 223.829 356.993 223.132 360.57 223.039L366.03 222.9V221.925C366.03 218.58 364.194 216.908 360.523 216.908C358.97 216.908 357.699 217.187 356.758 217.744C355.629 218.395 354.923 219.37 354.64 220.717L349.698 220.299C350.216 217.698 351.534 215.747 353.605 214.54C355.393 213.425 357.841 212.914 360.853 212.914ZM367.174 226.977L361.959 227.112C357.318 227.202 355.022 228.731 355.022 231.609C355.022 232.508 355.404 233.227 356.218 233.812C356.983 234.397 358.036 234.711 359.328 234.711C361.481 234.711 363.299 234.082 364.83 232.868C366.361 231.653 367.174 230.125 367.174 228.326V226.977Z" fill="#253368"/>
<path d="M413.035 248.774C413.245 248.774 413.415 248.931 413.415 249.126C413.415 249.311 413.26 249.463 413.063 249.476L413.035 249.477H348.186C347.976 249.477 347.806 249.32 347.806 249.126C347.806 248.94 347.961 248.788 348.157 248.775L348.186 248.774H413.035Z" fill="#253368"/>
<path d="M306.958 251.252V248.72H307.845V248.344H306.958V248.023C306.958 247.882 306.988 247.781 307.049 247.719C307.11 247.652 307.213 247.624 307.347 247.624H307.888V247.235H307.286C307.019 247.235 306.812 247.303 306.673 247.444C306.539 247.579 306.472 247.764 306.472 248.012V248.344H305.682V248.72H306.472V251.252H306.958ZM309.698 251.331C310.166 251.331 310.543 251.179 310.829 250.875C311.09 250.594 311.224 250.234 311.224 249.801C311.224 249.362 311.09 249.002 310.823 248.715C310.543 248.411 310.166 248.265 309.698 248.265C309.225 248.265 308.854 248.411 308.574 248.715C308.307 249.002 308.173 249.362 308.173 249.801C308.173 250.234 308.307 250.594 308.574 250.875C308.854 251.179 309.225 251.331 309.698 251.331ZM309.698 250.954C309.364 250.954 309.103 250.836 308.921 250.599C308.751 250.386 308.672 250.121 308.672 249.801C308.672 249.474 308.751 249.21 308.921 248.996C309.103 248.76 309.364 248.642 309.698 248.642C310.027 248.642 310.288 248.76 310.482 248.996C310.646 249.21 310.731 249.474 310.731 249.801C310.731 250.116 310.646 250.386 310.482 250.599C310.288 250.836 310.027 250.954 309.698 250.954ZM312.342 251.252V249.497C312.36 249.232 312.451 249.024 312.621 248.867C312.779 248.72 312.968 248.647 313.186 248.647C313.733 248.647 314.013 248.929 314.013 249.497V251.252H314.499V249.463C314.499 248.664 314.104 248.265 313.326 248.265C313.119 248.265 312.931 248.31 312.761 248.4C312.591 248.484 312.451 248.608 312.342 248.771V248.344H311.856V251.252H312.342ZM316.79 251.252V250.875H316.388C316.279 250.875 316.2 250.847 316.158 250.802C316.109 250.757 316.091 250.678 316.091 250.571V248.72H316.869V248.344H316.091V247.404L315.611 247.59V248.344H314.979V248.72H315.611V250.571C315.611 250.791 315.659 250.954 315.763 251.066C315.872 251.19 316.06 251.252 316.316 251.252H316.79ZM320.739 251.331C321.213 251.331 321.565 251.145 321.784 250.774V251.252H322.24V247.157H321.754V248.878C321.511 248.467 321.164 248.265 320.715 248.265C320.265 248.265 319.919 248.417 319.664 248.732C319.427 249.013 319.311 249.362 319.311 249.789C319.311 250.228 319.427 250.588 319.664 250.869C319.919 251.173 320.277 251.331 320.739 251.331ZM320.8 250.959C320.46 250.959 320.204 250.841 320.034 250.616C319.882 250.414 319.809 250.138 319.809 249.789C319.809 249.441 319.882 249.17 320.04 248.974C320.21 248.749 320.472 248.636 320.818 248.636C321.098 248.636 321.329 248.737 321.505 248.951C321.675 249.159 321.766 249.435 321.766 249.772V249.829C321.766 250.155 321.687 250.419 321.535 250.622C321.359 250.847 321.116 250.959 320.8 250.959ZM324.306 251.331C324.713 251.331 325.047 251.218 325.308 251.004C325.521 250.824 325.661 250.599 325.734 250.318H325.248C325.169 250.521 325.065 250.672 324.932 250.774C324.774 250.892 324.561 250.954 324.306 250.954C324.008 250.954 323.771 250.864 323.601 250.684C323.431 250.504 323.34 250.251 323.315 249.924H325.795C325.782 249.418 325.661 249.019 325.43 248.737C325.175 248.422 324.792 248.265 324.288 248.265C323.832 248.265 323.473 248.417 323.206 248.72C322.939 249.007 322.811 249.367 322.811 249.795C322.811 250.267 322.945 250.639 323.224 250.92C323.492 251.19 323.856 251.331 324.306 251.331ZM325.29 249.576H323.328C323.358 249.289 323.455 249.064 323.625 248.895C323.795 248.726 324.02 248.642 324.3 248.642C324.895 248.642 325.229 248.951 325.29 249.576ZM327.532 251.331C328.42 251.331 328.863 251.027 328.863 250.431C328.863 250.177 328.736 249.981 328.486 249.834C328.322 249.739 328.055 249.649 327.678 249.564C327.362 249.486 327.144 249.424 327.028 249.373C326.846 249.289 326.761 249.182 326.761 249.058C326.761 248.929 326.828 248.827 326.961 248.754C327.083 248.675 327.253 248.642 327.472 248.642C327.721 248.642 327.915 248.687 328.049 248.777C328.17 248.855 328.249 248.99 328.292 249.17H328.766C328.681 248.563 328.255 248.265 327.478 248.265C327.125 248.265 326.834 248.338 326.615 248.484C326.378 248.63 326.262 248.822 326.262 249.069C326.262 249.317 326.378 249.502 326.621 249.637C326.767 249.727 327.028 249.812 327.399 249.896C327.739 249.975 327.964 250.037 328.067 250.082C328.262 250.172 328.365 250.296 328.365 250.459C328.365 250.785 328.079 250.954 327.52 250.954C327.253 250.954 327.052 250.909 326.919 250.819C326.785 250.717 326.694 250.554 326.657 250.324H326.183C326.256 250.993 326.706 251.331 327.532 251.331ZM329.835 247.916C329.939 247.916 330.024 247.882 330.097 247.82C330.17 247.753 330.206 247.674 330.206 247.579C330.206 247.477 330.17 247.399 330.097 247.342C330.024 247.275 329.939 247.247 329.835 247.247C329.732 247.247 329.647 247.275 329.574 247.342C329.501 247.399 329.471 247.477 329.471 247.579C329.471 247.674 329.501 247.753 329.574 247.82C329.647 247.882 329.732 247.916 329.835 247.916ZM330.078 251.252V248.344H329.592V251.252H330.078ZM332.393 252.444C333.347 252.444 333.827 251.977 333.827 251.049V248.344H333.341V248.844C333.11 248.456 332.758 248.265 332.284 248.265C331.847 248.265 331.5 248.405 331.245 248.692C330.99 248.962 330.868 249.306 330.868 249.733C330.868 250.155 330.99 250.498 331.245 250.768C331.5 251.044 331.847 251.184 332.284 251.184C332.758 251.184 333.11 250.987 333.341 250.599V251.111C333.341 251.752 333.025 252.079 332.393 252.079C332.108 252.079 331.895 252.028 331.755 251.932C331.616 251.842 331.525 251.696 331.488 251.499H331.002C331.057 251.814 331.196 252.051 331.421 252.208C331.64 252.366 331.968 252.444 332.393 252.444ZM332.351 250.807C332.011 250.807 331.762 250.695 331.591 250.481C331.439 250.29 331.367 250.037 331.367 249.733C331.367 249.407 331.452 249.142 331.622 248.951C331.798 248.737 332.041 248.636 332.357 248.636C332.667 248.636 332.91 248.737 333.092 248.951C333.262 249.142 333.347 249.407 333.347 249.733C333.347 250.048 333.262 250.307 333.092 250.504C332.91 250.706 332.667 250.807 332.351 250.807ZM335.067 251.252V249.497C335.085 249.232 335.176 249.024 335.347 248.867C335.505 248.72 335.693 248.647 335.912 248.647C336.458 248.647 336.738 248.929 336.738 249.497V251.252H337.224V249.463C337.224 248.664 336.829 248.265 336.051 248.265C335.845 248.265 335.656 248.31 335.486 248.4C335.316 248.484 335.176 248.608 335.067 248.771V248.344H334.581V251.252H335.067Z" fill="#253368"/>
<path fill-rule="evenodd" clip-rule="evenodd" d="M131.392 570.542C126.523 569.958 122.999 566.814 123.407 562.07L132.151 459.534C132.78 452.225 139.55 446.891 147.051 447.792C154.553 448.693 159.777 455.468 158.551 462.706L140.431 564.248C139.636 568.945 136.26 571.127 131.392 570.542Z" fill="#FFC999"/>
<path fill-rule="evenodd" clip-rule="evenodd" d="M191.029 569.092C195.934 569.203 200.055 565.538 200.365 560.787L207 459.168C207.479 451.848 201.586 445.612 194.029 445.439C186.471 445.266 180.283 451.227 180.406 458.562L182.107 560.37C182.187 565.13 186.124 568.98 191.029 569.092Z" fill="#FFC999"/>
<path fill-rule="evenodd" clip-rule="evenodd" d="M196.331 350.523C205.235 350.726 212.221 358.002 211.8 366.636L207.271 459.453C206.922 466.603 200.757 472.175 193.384 472.006C186.01 471.837 180.122 465.99 180.121 458.834L180.097 365.912C180.095 357.269 187.427 350.32 196.331 350.523Z" fill="#FFC999"/>
<path fill-rule="evenodd" clip-rule="evenodd" d="M159.072 353.568C150.233 352.507 142.225 358.715 141.342 367.315L131.84 459.778C131.108 466.899 136.367 473.286 143.687 474.165C151.007 475.044 157.712 470.095 158.793 463.016L172.813 371.095C174.118 362.545 167.912 354.631 159.072 353.568Z" fill="#FFC999"/>
<path fill-rule="evenodd" clip-rule="evenodd" d="M201.86 572.817L182.917 573.056L182.41 606.738L225.094 606.201L225.129 601.03C225.135 599.129 223.737 597.497 221.81 597.157L210.436 594.066L204.571 590.925C202.805 589.978 201.718 588.171 201.746 586.212C201.803 582.005 201.892 574.866 201.86 572.817Z" fill="#4E5C93"/>
<path fill-rule="evenodd" clip-rule="evenodd" d="M120.657 572.4L139.597 572.814L136.141 606.499L93.4654 605.568L93.4808 600.398C93.4929 598.497 94.9082 596.878 96.8374 596.555L108.242 593.57L114.137 590.481C115.913 589.551 117.473 587.656 118.109 585.797C119.285 582.358 120.604 574.448 120.657 572.4Z" fill="#4E5C93"/>
<path fill-rule="evenodd" clip-rule="evenodd" d="M200.157 573.881L182.927 574.097L181.603 547.664L201.385 547.415L200.157 573.881Z" fill="#597EF7"/>
<path fill-rule="evenodd" clip-rule="evenodd" d="M120.918 573.48L139.246 573.854L144.106 547.436L124.328 547.005L120.918 573.48Z" fill="#597EF7"/>
<path d="M201.236 552.145C201.549 552.141 201.805 552.384 201.809 552.687C201.813 552.965 201.603 553.197 201.328 553.237L201.251 553.243L182.988 553.473C182.675 553.477 182.419 553.234 182.415 552.931C182.411 552.653 182.621 552.421 182.896 552.381L182.973 552.375L201.236 552.145Z" fill="#E4EBF7"/>
<path d="M225.306 600.966C225.466 600.964 225.597 601.088 225.599 601.243C225.601 601.378 225.503 601.493 225.371 601.521L225.313 601.527L182.759 602.063C182.599 602.065 182.468 601.941 182.466 601.786C182.464 601.65 182.562 601.536 182.694 601.508L182.752 601.502L225.306 600.966Z" fill="#A3B5D6"/>
<path d="M124.454 551.735L142.714 552.133C143.027 552.14 143.274 552.391 143.267 552.694C143.261 552.972 143.043 553.197 142.766 553.228L142.689 553.231L124.429 552.833C124.117 552.826 123.869 552.575 123.876 552.271C123.883 551.994 124.101 551.769 124.378 551.738L124.454 551.735Z" fill="#E4EBF7"/>
<path d="M93.3048 600.331L135.852 601.259C136.012 601.263 136.139 601.391 136.135 601.547C136.132 601.682 136.03 601.793 135.898 601.817L135.839 601.821L93.2918 600.893C93.132 600.89 93.0054 600.761 93.0089 600.606C93.0121 600.47 93.1139 600.359 93.2464 600.336L93.3048 600.331Z" fill="#A3B5D6"/>
<path fill-rule="evenodd" clip-rule="evenodd" d="M225.309 601.246C225.27 598.328 223.054 595.867 220.08 595.44L210.435 594.051L209.895 601.338L225.309 601.246Z" fill="#E4EBF7"/>
<path fill-rule="evenodd" clip-rule="evenodd" d="M182.836 607.83L225.39 607.295C225.794 607.29 226.116 606.969 226.111 606.577L226.049 601.946C226.044 601.554 225.712 601.242 225.309 601.246L182.756 601.782C182.352 601.787 182.03 602.109 182.034 602.501L182.097 607.131C182.102 607.522 182.432 607.836 182.836 607.83Z" fill="#E4EBF7"/>
<path d="M201.426 584.51C201.738 584.442 202.048 584.633 202.118 584.935C202.188 585.238 201.992 585.539 201.68 585.606L201.518 585.647L201.456 585.663C201.266 585.715 201.053 585.78 200.823 585.86C200.166 586.087 199.51 586.381 198.901 586.747C198.657 586.894 198.426 587.05 198.21 587.213L198.123 587.281L198.144 587.284C198.37 587.313 198.61 587.349 198.864 587.391L199.388 587.482C199.746 587.547 200.119 587.621 200.504 587.702C200.858 587.777 201.21 587.855 201.553 587.934L202.577 588.18C202.628 588.193 202.672 588.204 202.708 588.214C203.199 588.34 203.295 588.975 202.863 589.234L202.81 589.268C202.775 589.29 202.729 589.321 202.671 589.36C202.507 589.472 202.322 589.608 202.122 589.767C201.712 590.093 201.301 590.466 200.904 590.884L200.849 590.943L200.963 590.943C201.174 590.945 201.391 590.95 201.614 590.96L201.953 590.977C202.899 591.034 203.904 591.158 204.925 591.328C205.302 591.391 205.663 591.458 206.001 591.525L206.668 591.664C206.76 591.684 206.834 591.701 206.886 591.714C207.497 591.859 207.463 592.713 206.843 592.813C206.744 592.829 206.546 592.877 206.283 592.971C205.838 593.129 205.391 593.356 204.977 593.663C204.567 593.966 204.209 594.333 203.918 594.77C203.744 595.03 203.385 595.104 203.117 594.936C202.849 594.767 202.772 594.419 202.946 594.159C203.312 593.61 203.762 593.149 204.274 592.77C204.392 592.683 204.509 592.602 204.626 592.526L204.763 592.441L204.729 592.436C203.91 592.299 203.103 592.194 202.336 592.131L201.881 592.099C201.033 592.047 200.277 592.056 199.641 592.133C199.138 592.194 198.804 591.642 199.103 591.244C199.244 591.057 199.389 590.874 199.539 590.696C200.044 590.098 200.578 589.573 201.118 589.119L201.242 589.017L200.776 588.912L200.258 588.8C199.884 588.721 199.521 588.649 199.175 588.586L198.721 588.507C197.916 588.373 197.263 588.302 196.819 588.308C196.326 588.314 196.051 587.758 196.364 587.389C196.886 586.775 197.538 586.245 198.291 585.793C198.975 585.381 199.705 585.054 200.435 584.801L200.746 584.698C201.038 584.605 201.272 584.544 201.426 584.51Z" fill="#E4EBF7"/>
<path d="M201.484 579.552L201.203 579.557C201.113 579.559 201.013 579.563 200.904 579.568L200.734 579.576C200.298 579.598 199.827 579.635 199.328 579.689C197.962 579.836 196.6 580.088 195.316 580.468C191.645 581.556 189.214 583.499 188.737 586.519C188.431 588.456 189.307 589.428 190.976 589.161C192.137 588.975 193.706 588.203 195.623 586.967C196.194 586.599 196.787 586.195 197.397 585.76C198.431 585.023 199.465 584.235 200.45 583.447L201.036 582.973L201.735 582.393C201.819 582.342 202.011 582.193 202.207 582.001C202.538 581.675 202.76 581.337 202.807 580.957C202.884 580.334 202.466 579.85 201.678 579.583C201.616 579.562 201.55 579.552 201.484 579.552ZM201.385 580.676C201.505 580.723 201.583 580.767 201.629 580.805L201.655 580.83L201.658 580.823C201.648 580.898 201.55 581.048 201.383 581.212C201.247 581.345 201.108 581.452 201.026 581.507L200.106 582.264C199.98 582.366 199.849 582.471 199.714 582.58C198.744 583.355 197.727 584.131 196.712 584.854C196.115 585.279 195.537 585.674 194.982 586.032C193.195 587.184 191.739 587.9 190.788 588.052C189.94 588.188 189.689 587.909 189.881 586.689C190.277 584.185 192.363 582.518 195.654 581.543C196.863 581.184 198.156 580.946 199.456 580.805C200.123 580.734 200.699 580.696 201.145 580.682L201.385 580.676Z" fill="#E4EBF7"/>
<path fill-rule="evenodd" clip-rule="evenodd" d="M135.705 607.587L93.1577 606.659C92.7549 606.651 92.4347 606.326 92.4433 605.934L92.5513 601.305C92.5601 600.913 92.8947 600.603 93.2986 600.612L135.845 601.54C136.249 601.55 136.568 601.873 136.559 602.265L136.451 606.895C136.442 607.286 136.108 607.596 135.705 607.587Z" fill="#E4EBF7"/>
<path fill-rule="evenodd" clip-rule="evenodd" d="M93.2986 600.612C93.3657 597.694 95.605 595.255 98.5852 594.853L108.242 593.554L108.71 600.846L93.2986 600.612Z" fill="#E4EBF7"/>
<path d="M116.649 584.516C116.721 584.214 117.033 584.027 117.344 584.097L117.523 584.142C117.726 584.196 118 584.279 118.327 584.396C119.05 584.653 119.773 584.984 120.451 585.399C121.206 585.861 121.858 586.399 122.378 587.023C122.688 587.395 122.408 587.948 121.915 587.937C121.389 587.926 120.57 588.019 119.552 588.195C119.198 588.256 118.825 588.326 118.44 588.404L117.928 588.509L117.484 588.606L117.597 588.7C118.04 589.078 118.479 589.506 118.9 589.984L119.15 590.276C119.306 590.463 119.457 590.655 119.602 590.853C119.897 591.253 119.557 591.802 119.055 591.736C118.416 591.653 117.657 591.638 116.803 591.682C116.041 591.721 115.231 591.806 114.405 591.925L113.929 591.996L114.048 592.071L114.221 592.188L114.395 592.314C114.912 592.701 115.364 593.171 115.73 593.731C115.901 593.993 115.821 594.34 115.551 594.506C115.281 594.672 114.923 594.595 114.752 594.333C114.461 593.887 114.102 593.513 113.688 593.204C113.279 592.897 112.838 592.669 112.399 592.509C112.139 592.415 111.944 592.366 111.847 592.349C111.227 592.243 111.202 591.389 111.815 591.249L112.231 591.16L112.351 591.136C112.77 591.053 113.231 590.969 113.72 590.892C114.757 590.727 115.78 590.609 116.742 590.56C117.087 590.542 117.419 590.533 117.737 590.534L117.858 590.536L117.788 590.458C117.476 590.124 117.155 589.819 116.832 589.543L116.59 589.341C116.442 589.222 116.303 589.116 116.175 589.023L115.913 588.841C115.891 588.826 115.873 588.815 115.861 588.808C115.431 588.545 115.534 587.911 116.026 587.788L116.667 587.637C117.159 587.523 117.679 587.41 118.205 587.304C118.6 587.224 118.983 587.152 119.35 587.089C119.712 587.026 120.052 586.973 120.367 586.931L120.619 586.898L120.527 586.824C120.382 586.713 120.231 586.606 120.074 586.502L119.834 586.349C119.23 585.98 118.58 585.682 117.929 585.45C117.758 585.39 117.597 585.337 117.447 585.292L117.187 585.218C117.138 585.205 117.102 585.196 117.08 585.191C116.769 585.12 116.576 584.818 116.649 584.516Z" fill="#E4EBF7"/>
<path d="M117.331 579.138C117.266 579.138 117.202 579.148 117.141 579.168C116.333 579.433 115.91 579.931 116.003 580.567C116.057 580.935 116.272 581.264 116.59 581.582C116.783 581.775 116.973 581.925 117.11 582.017L117.136 582.043C117.18 582.083 117.278 582.166 117.403 582.272L117.938 582.72C118.066 582.825 118.198 582.934 118.335 583.046C119.317 583.846 120.346 584.646 121.375 585.394C121.983 585.835 122.574 586.246 123.142 586.62C125.042 587.869 126.6 588.652 127.756 588.845C129.418 589.124 130.3 588.159 130.014 586.223C129.57 583.228 127.199 581.271 123.594 580.143C122.221 579.713 120.757 579.434 119.294 579.273C118.885 579.228 118.499 579.196 118.142 579.173L117.88 579.158C117.621 579.145 117.434 579.139 117.331 579.138ZM117.423 580.263L117.602 580.27L117.819 580.28C118.224 580.301 118.677 580.336 119.164 580.389C120.556 580.542 121.947 580.808 123.239 581.212C126.468 582.222 128.5 583.9 128.868 586.383C129.048 587.602 128.795 587.879 127.953 587.738C127.007 587.58 125.562 586.854 123.791 585.69C123.239 585.326 122.663 584.926 122.069 584.494C121.261 583.907 120.451 583.286 119.665 582.658L119.08 582.186C118.877 582.02 118.685 581.862 118.506 581.712L117.828 581.139C117.692 581.042 117.555 580.934 117.421 580.8L117.356 580.731C117.253 580.619 117.185 580.517 117.159 580.447L117.151 580.415C117.184 580.376 117.271 580.322 117.423 580.263Z" fill="#E4EBF7"/>
<path fill-rule="evenodd" clip-rule="evenodd" d="M220.825 206.775C220.825 206.775 232.328 203.288 237.432 214.885C249.509 217.141 248.388 229.704 248.388 229.704C248.388 229.704 255.685 238.304 245.1 244.932C245.792 254.797 234.113 254.797 234.113 254.797C234.113 254.797 232.62 262.733 223.456 260.983C215.28 269.479 197.452 270.797 189.783 263.152C178.874 274.049 155.511 266.442 156.864 257.831C142.256 259.227 132.786 245.424 139.179 231.46C131.018 222.466 137.467 215.409 137.467 215.409C137.467 215.409 131.628 192.746 147.514 187.107C153.9 173.424 173.757 180.54 173.757 180.54C173.757 180.54 185.426 176.236 191.43 185.729C205.249 185.648 205.802 192.941 207.835 198.819C220.015 197.609 220.825 206.775 220.825 206.775Z" fill="#253368"/>
<path fill-rule="evenodd" clip-rule="evenodd" d="M181.551 201.363C172.361 204.442 168.342 197.944 168.342 197.944C168.342 197.944 162.827 188.771 162.818 194.93C162.813 198.203 157.031 194.758 155.254 198.522C154.059 201.055 158.478 203.394 154.374 210.291C151.996 214.286 164.14 215.294 158.009 222.93C158.009 222.93 164.445 230.09 156.072 234.05L156.677 243.523C157.029 249.035 162.205 253.05 167.826 252.169C173.183 251.33 176.767 246.361 175.748 241.188L173.516 229.871C187.18 227.75 184.843 209.423 181.551 201.363Z" fill="#FFC999"/>
<path fill-rule="evenodd" clip-rule="evenodd" d="M260.436 244.261L267.369 220.486C267.369 220.486 278.724 201.195 282.825 202.381C286.634 203.999 278.024 209.521 276.318 214.971C279.943 214.719 278.296 219.952 278.296 219.952C278.296 219.952 281.182 219.85 280.406 224.113C283.086 225.652 280.938 230.545 280.938 230.545C280.938 230.545 275.554 243.433 269.589 252.03C269.589 252.03 259.693 259.445 260.436 244.261Z" fill="#FFC999"/>
<path fill-rule="evenodd" clip-rule="evenodd" d="M261.976 236.228C261.976 236.228 263.011 228.074 263.785 223.921C264.558 219.767 262.75 212.265 265.872 214.252C267.971 215.589 267.606 220.052 267.53 223.343C267.455 226.633 272.932 234.433 268.85 239.832C266.092 243.481 261.744 243.959 261.976 236.228Z" fill="#FFC999"/>
<path fill-rule="evenodd" clip-rule="evenodd" d="M268.342 242.642C265.499 240.809 261.673 241.47 259.657 244.143L220.731 295.734C217.315 300.589 218.648 307.218 223.695 310.471C228.786 313.753 235.663 312.321 238.917 307.301L270.425 250.749C271.996 247.93 271.092 244.416 268.342 242.642Z" fill="#FFC999"/>
<path d="M165.717 213.769C165.916 213.503 166.3 213.443 166.575 213.636L166.653 213.687C166.704 213.719 166.774 213.761 166.863 213.811C167.116 213.954 167.411 214.099 167.743 214.234C169.284 214.86 171.01 215.066 172.826 214.607C173.154 214.524 173.49 214.714 173.575 215.033C173.661 215.351 173.464 215.677 173.136 215.76C171.034 216.292 169.041 216.053 167.269 215.333C166.608 215.065 166.127 214.793 165.855 214.601C165.58 214.408 165.519 214.036 165.717 213.769Z" fill="#F5222D"/>
<path d="M165.301 204.337C165.624 204.287 165.927 204.5 165.978 204.813C166.336 206.989 164.942 209.032 162.833 209.361C160.725 209.687 158.743 208.167 158.385 205.991C158.333 205.678 158.553 205.384 158.875 205.335C159.198 205.285 159.501 205.498 159.552 205.81C159.81 207.381 161.206 208.451 162.646 208.229C164.088 208.004 165.069 206.565 164.811 204.994C164.759 204.681 164.979 204.387 165.301 204.337Z" fill="#253368"/>
<path d="M180.089 202.441C180.394 202.393 180.682 202.595 180.731 202.892C181.086 205.041 179.862 207.057 177.934 207.356C176.006 207.655 174.195 206.112 173.84 203.962C173.791 203.665 174 203.386 174.305 203.339C174.611 203.291 174.899 203.493 174.948 203.79C175.211 205.386 176.491 206.478 177.757 206.282C179.022 206.085 179.887 204.66 179.624 203.064C179.575 202.767 179.783 202.488 180.089 202.441Z" fill="#253368"/>
<path d="M159.142 198.562C161.082 197.833 163.13 197.797 165.034 198.169L165.34 198.233C165.624 198.296 165.841 198.357 165.98 198.403C166.289 198.504 166.455 198.83 166.35 199.13C166.245 199.43 165.91 199.59 165.601 199.489L165.47 199.449C165.316 199.406 165.089 199.35 164.8 199.293C163.098 198.961 161.268 198.993 159.569 199.631C158.777 199.929 158.045 200.352 157.381 200.914C157.135 201.122 156.762 201.097 156.547 200.858C156.333 200.619 156.358 200.257 156.604 200.049C157.374 199.398 158.225 198.907 159.142 198.562Z" fill="#253368"/>
<path fill-rule="evenodd" clip-rule="evenodd" d="M236.478 309.573C241.499 306.177 242.73 299.475 239.23 294.603L205.125 247.137C201.624 242.267 194.718 241.071 189.697 244.467C184.678 247.862 183.446 254.564 186.946 259.436L221.052 306.902C224.552 311.773 231.458 312.968 236.478 309.573Z" fill="#FFC999"/>
<path d="M186.483 259.335C186.624 259.24 186.812 259.259 186.93 259.372L186.97 259.419L201.225 279.258L218.98 266.969C219.119 266.872 219.308 266.89 219.427 267.002L219.468 267.048C219.568 267.184 219.55 267.367 219.434 267.482L219.386 267.522L201.344 280.011C201.203 280.108 201.013 280.09 200.895 279.976L200.854 279.929L186.396 259.808C186.286 259.654 186.325 259.442 186.483 259.335Z" fill="#4E5C93"/>
<path fill-rule="evenodd" clip-rule="evenodd" d="M201.404 279.557L186.945 259.436C183.46 254.585 184.698 247.849 189.698 244.467C194.696 241.085 201.639 242.287 205.124 247.138L219.445 267.068L201.404 279.557Z" fill="#597EF7"/>
<path fill-rule="evenodd" clip-rule="evenodd" d="M196.542 261.9C198.909 266.905 203.294 275.521 203.839 281.213C204.724 290.441 198.532 297.308 198.532 297.308C198.532 297.308 198.47 294.594 197.869 318.503C169.506 323.33 151.422 318.197 151.422 318.197L151.975 311.859L147.369 296.878C147.369 296.878 144.571 291.299 138.82 278.853C134.823 270.2 135.101 259.473 135.642 253.737C135.874 251.28 134.671 246.15 137.184 245.767C145.721 244.464 151.645 243.762 151.645 243.762L152.684 240.664C152.822 239.727 153.65 239.031 154.626 239.031H176.575C177.471 239.031 178.252 239.619 178.474 240.462L180.013 243.762L191.58 244.163C193.607 244.548 195.359 250.708 195.57 252.7L196.542 261.9Z" fill="#597EF7"/>
<path d="M151.367 244.609C151.545 244.471 151.797 244.483 151.96 244.628L152.011 244.681L171.828 268.926L179.519 246.31C179.591 246.1 179.808 245.976 180.026 246.009L180.099 246.026C180.315 246.096 180.443 246.307 180.408 246.518L180.391 246.589L172.434 269.99C172.327 270.304 171.925 270.393 171.687 270.178L171.639 270.127L151.292 245.234C151.135 245.041 151.168 244.761 151.367 244.609Z" fill="#CCD7EE"/>
<path fill-rule="evenodd" clip-rule="evenodd" d="M177.678 271.733C179.761 275.14 178.822 279.412 175.583 281.277C172.344 283.14 168.03 281.888 165.949 278.482C163.867 275.074 164.805 270.802 168.044 268.938C171.283 267.075 175.596 268.327 177.678 271.733Z" fill="#CCD7EE"/>
<path fill-rule="evenodd" clip-rule="evenodd" d="M178.427 271.716C180.509 275.123 179.57 279.395 176.331 281.259C173.092 283.123 168.778 281.872 166.696 278.464C164.615 275.058 165.553 270.785 168.793 268.922C172.03 267.058 176.344 268.31 178.427 271.716Z" fill="#E4EBF7"/>
<path fill-rule="evenodd" clip-rule="evenodd" d="M177.105 272.31C178.721 274.955 177.993 278.272 175.477 279.719C172.962 281.166 169.613 280.195 167.998 277.55C166.381 274.905 167.109 271.588 169.624 270.141C172.139 268.693 175.488 269.665 177.105 272.31Z" fill="#FAAD14"/>
<path d="M135.652 253.397C135.845 253.403 135.997 253.559 135.992 253.747L135.961 255.097L135.957 255.355C135.909 258.045 135.904 260.888 135.969 263.548L135.99 264.314C136.077 267.2 136.248 269.521 136.516 271.081C136.82 272.851 137.988 275.857 139.798 279.731C140.114 280.408 140.447 281.105 140.795 281.82C141.754 283.788 142.781 285.798 143.808 287.743L144.327 288.719L145.162 290.265L145.201 290.343L152.639 311.862L152.656 312.004L152.022 318.249L152.573 318.354C152.73 318.383 152.897 318.413 153.073 318.444L153.345 318.491C154.676 318.719 156.218 318.948 157.953 319.161C169.799 320.617 183.208 320.624 197.021 318.233L197.583 318.133L197.631 316.396C197.666 315.258 197.719 313.695 197.787 311.767L198.059 304.317L198.296 298.048L198.34 297.896L198.509 297.59L198.78 297.086C198.857 296.941 198.936 296.789 199.019 296.629L199.144 296.385C199.749 295.199 200.354 293.912 200.919 292.571C201.721 290.664 202.374 288.808 202.823 287.065C203.258 285.379 203.489 283.846 203.489 282.501C203.489 279.135 203.029 276.552 201.997 273.887C201.48 272.553 200.817 271.176 199.86 269.418L199.385 268.557C198.742 267.414 197.501 265.241 196.782 263.986L196.235 263.029L196.192 262.878L195.971 257.192C195.963 257.004 196.114 256.847 196.307 256.84C196.479 256.833 196.626 256.948 196.662 257.105L196.67 257.166L196.888 262.771L199.755 267.8L200.283 268.741L200.67 269.453C201.538 271.07 202.159 272.375 202.652 273.648C203.715 276.391 204.189 279.056 204.189 282.501C204.189 283.908 203.95 285.494 203.503 287.23C203.044 289.007 202.381 290.893 201.567 292.828C201.077 293.991 200.557 295.113 200.033 296.166L199.771 296.687C199.642 296.939 199.519 297.176 199.403 297.396L198.992 298.153L198.42 313.711C198.336 316.157 198.287 317.765 198.281 318.324L198.281 318.417C198.281 318.581 198.16 318.721 197.994 318.751C183.805 321.305 170.02 321.328 157.865 319.835C156.293 319.641 154.878 319.436 153.632 319.229L153.223 319.16C152.941 319.111 152.681 319.065 152.442 319.021L151.568 318.851C151.417 318.819 151.308 318.695 151.295 318.55L151.295 318.486L151.951 312.008L144.56 290.611L144.182 289.916C143.881 289.361 143.546 288.735 143.186 288.053C142.155 286.102 141.125 284.085 140.162 282.11L139.65 281.047C139.566 280.872 139.484 280.698 139.402 280.526L139.161 280.012C137.325 276.084 136.143 273.04 135.825 271.193C135.527 269.457 135.349 266.837 135.269 263.564C135.214 261.275 135.209 258.853 135.239 256.508L135.266 254.837L135.292 253.728C135.298 253.54 135.459 253.392 135.652 253.397Z" fill="#4E5C93"/>
<path fill-rule="evenodd" clip-rule="evenodd" d="M114.765 317.578L114.45 317.46C108.832 315.343 106.047 309.21 108.227 303.759L129.028 251.771C131.209 246.32 137.532 243.618 143.149 245.734L143.465 245.853C149.082 247.969 151.867 254.103 149.686 259.555L128.886 311.541C126.705 316.992 120.382 319.695 114.765 317.578Z" fill="#FFC999"/>
<path fill-rule="evenodd" clip-rule="evenodd" d="M151.867 323.266C141.901 324.023 112.515 384.374 103.58 406.224C104.77 410.624 117.771 419.142 117.771 419.142C117.771 419.142 116.994 422.644 116.515 424.749C125.018 431.535 141.465 435.222 141.465 435.222L141.501 438.232C167.796 449.981 203.007 438.721 203.007 438.721C203.007 438.721 203.664 438.069 203.193 435.708C215.131 435.573 240.695 420.876 240.695 420.876L237.061 413.605L247.576 403.162C247.576 403.162 219.182 352.479 210.443 338.302C202.77 325.857 195.574 322.273 195.574 322.273C195.574 322.273 169.548 321.923 151.867 323.266Z" fill="#4E5C93"/>
<path fill-rule="evenodd" clip-rule="evenodd" d="M197.478 323.265L196.727 317.738C196.727 317.738 174.237 317.868 152.179 316.796C151.622 319.25 150.982 323.666 150.982 323.666C152.836 322.188 172.872 326.504 197.478 323.265Z" fill="#4E5C93"/>
<path d="M196.657 334.044C196.855 333.95 197.09 334.012 197.213 334.181L197.25 334.241L240.645 420.262C240.737 420.444 240.685 420.664 240.52 420.789L240.247 420.99L239.803 421.306C239.695 421.382 239.58 421.462 239.458 421.546C238.591 422.143 237.572 422.807 236.405 423.523C233.076 425.564 229.236 427.605 224.936 429.51C218.253 432.471 211.082 434.823 203.506 436.342C203.267 436.39 203.033 436.24 202.983 436.008C202.934 435.775 203.088 435.548 203.327 435.5C210.834 433.995 217.943 431.663 224.569 428.728C228.83 426.84 232.635 424.818 235.932 422.796C236.957 422.168 237.866 421.58 238.655 421.044L239.119 420.725L239.688 420.321L196.454 334.619C196.358 334.427 196.422 334.2 196.595 334.08L196.657 334.044Z" fill="#253368"/>
<path d="M144.15 351.909C144.236 351.687 144.492 351.575 144.721 351.659C144.927 351.734 145.041 351.943 144.998 352.145L144.978 352.213L116.619 425.009L117.084 425.289L117.648 425.619C118.139 425.901 118.681 426.205 119.272 426.524C121.636 427.804 124.286 429.084 127.157 430.279C131.836 432.227 136.637 433.752 141.44 434.694C141.68 434.741 141.835 434.968 141.787 435.2C141.738 435.433 141.505 435.584 141.265 435.537C136.398 434.582 131.539 433.039 126.807 431.069C123.907 429.862 121.23 428.569 118.84 427.275C118.123 426.887 117.475 426.522 116.902 426.187L116.308 425.835L115.834 425.543C115.68 425.445 115.606 425.266 115.643 425.096L115.663 425.032L144.15 351.909Z" fill="#253368"/>
<path d="M163.158 324.891L163.229 324.901C163.445 324.943 163.593 325.13 163.585 325.337L163.573 325.424L161.876 333.736C161.292 336.613 160.669 339.694 160.014 342.949L159.654 344.741C156.922 358.34 154.189 372.188 151.614 385.579L151.023 388.661C150.708 390.304 150.398 391.932 150.091 393.542L148.452 402.228C146.036 415.127 143.987 426.535 142.38 436.107L142.003 438.37L142.608 438.565C143.249 438.768 143.895 438.963 144.544 439.15L145.52 439.425C161.291 443.758 178.145 443.512 194.062 440.493C196.588 440.014 198.866 439.501 200.859 438.988L201.434 438.837C201.712 438.764 201.973 438.693 202.218 438.625L202.937 438.419L183.19 342.381C183.147 342.172 183.269 341.967 183.468 341.895L183.538 341.876C183.754 341.834 183.964 341.952 184.039 342.146L184.059 342.213L203.885 438.632C203.929 438.846 203.8 439.058 203.586 439.125L202.937 439.317L202.462 439.451C202.131 439.543 201.771 439.64 201.382 439.742L201.086 439.819C199.075 440.336 196.778 440.854 194.232 441.337C178.19 444.379 161.203 444.627 145.279 440.252C143.959 439.889 142.653 439.495 141.364 439.07C141.159 439.002 141.035 438.802 141.069 438.595L141.619 435.298C143.209 425.86 145.22 414.678 147.58 402.075L148.613 396.587C149.114 393.939 149.627 391.243 150.152 388.504C152.702 375.185 155.422 361.355 158.154 347.719L160.521 335.969L162.708 325.238C162.751 325.028 162.945 324.885 163.158 324.891Z" fill="#253368"/>
<path d="M173.785 326.548C174.005 326.536 174.196 326.682 174.242 326.884L174.252 326.953L178.912 407.143C178.926 407.38 178.739 407.583 178.495 407.597C178.275 407.608 178.083 407.463 178.037 407.261L178.027 407.191L173.368 327.002C173.354 326.765 173.541 326.562 173.785 326.548Z" fill="#253368"/>
<path d="M185.626 324.497C185.837 324.434 186.059 324.53 186.154 324.715L186.181 324.78L203.676 379.434C203.748 379.66 203.618 379.901 203.384 379.972C203.174 380.035 202.952 379.939 202.856 379.754L202.83 379.689L185.335 325.035C185.262 324.808 185.393 324.568 185.626 324.497Z" fill="#253368"/>
<path d="M153.35 323.236C163.277 323.686 172.913 323.889 181.492 323.888L184.419 323.88C187.442 323.862 190.112 323.818 192.151 323.756L193.121 323.724C193.416 323.713 193.684 323.702 193.919 323.691L194.393 323.666C194.551 323.656 194.681 323.647 194.781 323.638L194.9 323.626L194.951 323.607C195.016 323.587 195.086 323.582 195.156 323.594L195.226 323.611L195.282 323.618C195.389 323.637 195.401 323.704 195.492 324.207L195.311 324.391C195.255 324.443 195.239 324.444 195.199 324.446C195.165 324.456 195.129 324.463 195.085 324.47L195.012 324.479C194.951 324.487 194.873 324.494 194.779 324.501L194.447 324.524C194.022 324.549 193.423 324.575 192.688 324.599L191.163 324.644C189.16 324.694 186.687 324.729 183.943 324.742L183.456 324.744C174.383 324.779 164.014 324.58 153.308 324.094C153.064 324.083 152.875 323.882 152.886 323.645C152.898 323.408 153.105 323.225 153.35 323.236Z" fill="#253368"/>
<path fill-rule="evenodd" clip-rule="evenodd" d="M141.381 280.313L150.53 257.446C152.736 251.933 149.892 245.672 144.211 243.532C138.53 241.392 132.078 244.151 129.871 249.663L120.81 272.314L141.381 280.313Z" fill="#597EF7"/>
<path d="M176.49 246.086C176.683 246.086 176.84 246.238 176.84 246.425C176.84 246.592 176.716 246.731 176.553 246.759L176.49 246.765H157.717C157.524 246.765 157.368 246.613 157.368 246.425C157.368 246.259 157.491 246.12 157.655 246.091L157.717 246.086H176.49Z" fill="#4E5C93"/>
<path d="M150.502 257.436C150.572 257.261 150.775 257.174 150.955 257.242C151.115 257.302 151.203 257.465 151.172 257.623L151.154 257.681L142.005 280.548C141.942 280.704 141.773 280.79 141.609 280.758L141.548 280.74L120.977 272.741C120.798 272.671 120.711 272.473 120.783 272.299C120.846 272.144 121.015 272.06 121.177 272.093L121.238 272.11L141.48 279.982L150.502 257.436Z" fill="#4E5C93"/>
<path fill-rule="evenodd" clip-rule="evenodd" d="M172.402 319.206L190.551 271.183C190.85 270.391 191.638 269.873 192.506 269.898L237.501 271.144C238.899 271.183 239.834 272.554 239.327 273.818L220.529 320.518C220.227 321.27 219.481 321.764 218.65 321.766L174.303 321.841C172.896 321.843 171.918 320.486 172.402 319.206Z" fill="#4E5C93"/>
<path fill-rule="evenodd" clip-rule="evenodd" d="M174.798 318.709L192.631 271.523C192.993 270.564 193.946 269.938 194.998 269.967L240.55 271.229C241.527 271.256 242.182 272.214 241.825 273.098L222.769 320.445C222.434 321.277 221.609 321.825 220.689 321.827L177.099 321.901C175.397 321.904 174.212 320.261 174.798 318.709Z" fill="#253368"/>
<path fill-rule="evenodd" clip-rule="evenodd" d="M198.667 274.734C199.152 275.304 198.928 276.262 198.164 276.873C197.401 277.485 196.39 277.518 195.905 276.947C195.419 276.377 195.644 275.419 196.406 274.809C197.17 274.197 198.181 274.164 198.667 274.734Z" fill="#4E5C93"/>
<path fill-rule="evenodd" clip-rule="evenodd" d="M198.038 275.283C198.29 275.579 198.173 276.077 197.777 276.394C197.381 276.711 196.855 276.729 196.604 276.433C196.352 276.137 196.469 275.639 196.865 275.322C197.26 275.005 197.786 274.988 198.038 275.283Z" fill="#FFC999"/>
<path fill-rule="evenodd" clip-rule="evenodd" d="M189.556 318.486C189.073 321.765 186.017 324.095 182.62 323.775L117.033 317.606C111.025 316.846 106.816 311.468 107.674 305.649C108.539 299.777 114.22 295.752 120.247 296.738L184.71 311.58C187.923 312.32 190.024 315.315 189.556 318.486Z" fill="#FFC999"/>
<path fill-rule="evenodd" clip-rule="evenodd" d="M189.567 326.219C189.567 326.219 174.518 324.739 172.582 318.237C170.829 312.348 176.671 309.944 176.671 309.944C176.671 309.944 182.089 306.661 189.093 305.528C193.707 304.782 202.632 304.227 203.362 306.526C204.316 309.524 194.178 309.582 194.16 311.865C194.141 314.206 196.236 314.345 200.894 316.182C203.806 317.33 205.621 316.618 207.897 318.048C212.348 320.842 207.113 329.152 189.567 326.219Z" fill="#FFC999"/>
<path d="M171.666 203.466C171.881 203.448 172.074 203.585 172.125 203.781L172.156 203.968C172.167 204.023 172.183 204.094 172.205 204.179C172.283 204.477 172.406 204.824 172.585 205.214C173.106 206.347 173.978 207.59 175.283 208.902C175.456 209.076 175.444 209.354 175.257 209.512L174.692 209.988C173.868 210.675 173.15 211.244 172.535 211.706L172.101 212.027L171.652 212.342C171.641 212.349 171.631 212.356 171.623 212.361C171.424 212.491 171.154 212.439 171.02 212.246C170.887 212.052 170.94 211.791 171.139 211.661L171.348 211.518L171.583 211.351C171.667 211.29 171.757 211.223 171.854 211.152L172.003 211.04C172.54 210.637 173.158 210.149 173.86 209.569L174.345 209.165L174.164 208.972C173.136 207.862 172.397 206.792 171.902 205.788L171.792 205.558C171.447 204.807 171.302 204.247 171.272 203.923C171.251 203.691 171.428 203.486 171.666 203.466Z" fill="#DD936F"/>
<path d="M164.396 228.973C164.476 228.754 164.724 228.639 164.95 228.716C167.831 229.705 170.697 229.981 173.464 229.589C173.701 229.556 173.921 229.715 173.956 229.945C173.991 230.176 173.826 230.39 173.589 230.423C170.683 230.835 167.674 230.545 164.661 229.511C164.435 229.433 164.316 229.193 164.396 228.973Z" fill="#DD936F"/>
<path d="M276.616 214.666C276.79 214.826 276.797 215.093 276.632 215.261L276.431 215.472L276.174 215.748C276.084 215.846 275.99 215.95 275.892 216.059C275.335 216.682 274.777 217.347 274.258 218.028C273.743 218.702 273.294 219.354 272.93 219.97C271.688 222.067 271.584 223.408 272.766 223.886C272.987 223.975 273.091 224.222 272.999 224.437C272.907 224.651 272.653 224.753 272.431 224.663C270.562 223.907 270.706 222.034 272.177 219.55C272.559 218.903 273.027 218.225 273.56 217.526C274.094 216.827 274.665 216.144 275.237 215.506L275.661 215.041L276.003 214.681C276.168 214.512 276.443 214.506 276.616 214.666Z" fill="#DD936F"/>
<path d="M278.297 219.853C278.443 220.038 278.407 220.302 278.217 220.444L278.006 220.606L277.735 220.818C277.64 220.894 277.541 220.974 277.439 221.058C276.851 221.538 276.265 222.052 275.718 222.58C275.136 223.142 274.635 223.685 274.24 224.195C273.187 225.555 273.022 226.451 273.776 226.899C274.089 227.086 274.442 227.127 274.85 227.035C275.445 226.9 276.117 226.489 276.805 225.886C277.117 225.612 277.411 225.317 277.677 225.023L277.88 224.792C277.935 224.727 277.978 224.675 278.007 224.637C278.152 224.452 278.425 224.417 278.615 224.558C278.806 224.699 278.843 224.963 278.698 225.148L278.552 225.325C278.491 225.397 278.416 225.483 278.33 225.578C278.043 225.896 277.726 226.213 277.387 226.51C276.6 227.201 275.814 227.682 275.047 227.856C274.428 227.995 273.842 227.927 273.322 227.617C271.965 226.81 272.225 225.394 273.546 223.689C273.969 223.143 274.496 222.571 275.105 221.983C275.671 221.437 276.275 220.907 276.879 220.413L277.184 220.167L277.689 219.775C277.879 219.634 278.152 219.669 278.297 219.853Z" fill="#DD936F"/>
<path d="M279.372 224.008C279.609 223.972 279.831 224.128 279.869 224.358C279.906 224.588 279.744 224.804 279.507 224.84C278.926 224.929 278.184 225.438 277.296 226.452C275.431 228.582 275.044 229.952 275.599 230.267C276.173 230.593 277.536 229.991 278.411 228.775C278.72 228.346 279.398 228.74 279.155 229.207C278.064 231.295 276.786 232.75 275.197 233.882L274.801 234.155C274.135 234.603 273.891 234.731 272.055 235.671L271.625 235.896C269.133 237.235 268.127 238.411 267.55 241.196C267.503 241.424 267.274 241.571 267.039 241.526C266.804 241.48 266.652 241.258 266.699 241.03C267.349 237.886 268.568 236.539 271.426 235.042L273.103 234.176C273.743 233.838 273.967 233.693 274.458 233.359C275.41 232.713 276.243 231.955 276.99 231.005L277.019 230.966L276.912 231.008C276.31 231.23 275.724 231.26 275.265 231.048L275.161 230.994C273.923 230.292 274.459 228.39 276.635 225.907C277.644 224.754 278.547 224.134 279.372 224.008Z" fill="#DD936F"/>
<path d="M267.588 218.809C267.803 218.792 267.995 218.93 268.045 219.127L268.057 219.194L268.583 225.364L268.746 225.643L268.867 225.861C269.116 226.319 269.365 226.829 269.597 227.379C270.272 228.975 270.674 230.576 270.666 232.086C270.659 233.265 270.398 234.34 269.845 235.281C269.726 235.483 269.461 235.553 269.252 235.438C269.044 235.323 268.972 235.065 269.09 234.863C269.565 234.057 269.792 233.123 269.798 232.082C269.805 230.699 269.429 229.2 268.794 227.698C268.617 227.28 268.43 226.885 268.241 226.521L268.099 226.254C267.958 225.995 267.849 225.812 267.789 225.717C267.765 225.68 267.748 225.639 267.737 225.596L267.726 225.531L267.191 219.264C267.172 219.032 267.349 218.828 267.588 218.809Z" fill="#DD936F"/>
<path d="M194.659 317.841C194.802 317.655 195.074 317.616 195.266 317.755L195.378 317.832C195.513 317.922 195.718 318.048 195.991 318.201C196.604 318.546 197.328 318.892 198.158 319.215C201.025 320.332 204.384 320.903 208.178 320.633C208.417 320.616 208.625 320.79 208.643 321.022C208.66 321.254 208.481 321.456 208.242 321.473C204.309 321.753 200.819 321.16 197.834 319.997C196.965 319.658 196.203 319.295 195.555 318.93C195.384 318.834 195.23 318.743 195.092 318.657L194.961 318.574C194.858 318.508 194.786 318.459 194.747 318.431C194.555 318.292 194.515 318.028 194.659 317.841Z" fill="#DD936F"/>
<path d="M192.433 321.51C192.535 321.299 192.793 321.208 193.01 321.307C193.227 321.405 193.446 321.499 193.667 321.59C197 322.955 200.484 323.371 203.417 323.252L203.753 323.236C203.947 323.226 204.08 323.215 204.147 323.209C204.385 323.184 204.599 323.353 204.623 323.584C204.648 323.815 204.475 324.022 204.236 324.047L203.99 324.066C203.934 324.07 203.872 324.074 203.803 324.078C200.68 324.25 196.932 323.842 193.329 322.366C193.098 322.272 192.869 322.173 192.642 322.07C192.425 321.971 192.332 321.72 192.433 321.51Z" fill="#DD936F"/>
<path d="M188.7 323.6C188.824 323.401 189.091 323.336 189.296 323.456L189.395 323.51C189.516 323.573 189.705 323.663 189.963 323.773C190.548 324.022 191.263 324.272 192.113 324.506C193.986 325.022 196.226 325.384 198.848 325.523C199.087 325.535 199.271 325.734 199.257 325.966C199.244 326.199 199.04 326.377 198.8 326.364C196.114 326.222 193.811 325.85 191.876 325.317C190.988 325.072 190.235 324.809 189.614 324.545C189.235 324.384 188.981 324.256 188.848 324.178C188.643 324.058 188.577 323.799 188.7 323.6Z" fill="#DD936F"/>
<path fill-rule="evenodd" clip-rule="evenodd" d="M249.355 607.562C247.575 607.562 246.173 605.924 246.312 604.007L257.895 443.633H268.995L252.644 604.624C252.474 606.296 251.167 607.562 249.61 607.562" fill="#FFC53D"/>
<path fill-rule="evenodd" clip-rule="evenodd" d="M505.081 607.562C506.86 607.562 508.262 605.924 508.124 604.007L496.541 443.633H485.441L501.792 604.624C501.962 606.296 503.269 607.562 504.826 607.562" fill="#FFC53D"/>
<path fill-rule="evenodd" clip-rule="evenodd" d="M503.106 443.633H251.33C250.416 443.633 249.561 443.146 249.044 442.333C247.778 440.343 249.096 437.635 251.33 437.635H503.106C505.34 437.635 506.658 440.343 505.392 442.333C504.875 443.146 504.02 443.633 503.106 443.633Z" fill="#FFC53D"/>
<path fill-rule="evenodd" clip-rule="evenodd" d="M496.911 447.631H257.525L257.895 443.633H496.541L496.911 447.631Z" fill="#D48806"/>
<path fill-rule="evenodd" clip-rule="evenodd" d="M438.656 293.233C456.891 283.986 467.759 308.237 458.588 321.74C447.397 338.217 441.665 357.176 438.472 362.888C435.779 367.707 428.403 379.455 419.52 374.04C411.345 369.057 415.8 349.499 415.8 349.499C415.8 349.499 416.161 304.64 438.656 293.233Z" fill="#5B8C00"/>
<path fill-rule="evenodd" clip-rule="evenodd" d="M383.81 370.274C377.611 361.308 375.347 348.441 382.267 345.141C388.9 341.978 399.89 349.767 404.98 364.757C410.07 379.748 413.006 390.526 408.027 392.4C399.858 395.474 391.998 382.117 383.81 370.274Z" fill="#5B8C00"/>
<path fill-rule="evenodd" clip-rule="evenodd" d="M448.982 370.955C441.971 379.764 431.853 397.485 425.514 391.278C421.672 387.517 426.808 369.705 440.866 360.013C452.824 351.77 455.994 362.146 448.982 370.955Z" fill="#7CB305"/>
<path fill-rule="evenodd" clip-rule="evenodd" d="M381.888 309.825C384.554 307.902 387.909 307.463 390.969 308.514C395.24 309.981 401.722 314.348 408.138 326.883C416.513 343.248 420.873 361.189 420.011 372.554C419.448 379.986 410.907 383.19 406.13 377.771C403.935 375.282 401.614 371.446 399.342 365.626C390.2 342.206 381.654 327.53 380.634 326.056C377.915 322.124 375.97 314.094 381.888 309.825Z" fill="#7CB305"/>
<path fill-rule="evenodd" clip-rule="evenodd" d="M388.019 319.167C388.11 320.323 387.308 321.339 386.23 321.436C385.151 321.533 384.204 320.675 384.113 319.518C384.023 318.362 384.824 317.346 385.902 317.249C386.981 317.152 387.929 318.011 388.019 319.167Z" fill="white"/>
<path fill-rule="evenodd" clip-rule="evenodd" d="M404.666 328.138C404.756 329.294 403.955 330.31 402.877 330.407C401.798 330.504 400.85 329.645 400.76 328.489C400.669 327.333 401.47 326.317 402.549 326.22C403.628 326.123 404.575 326.982 404.666 328.138Z" fill="white"/>
<path fill-rule="evenodd" clip-rule="evenodd" d="M401.876 352.023C401.98 353.347 401.062 354.511 399.827 354.622C398.592 354.733 397.506 353.75 397.403 352.425C397.299 351.101 398.216 349.938 399.452 349.826C400.687 349.715 401.772 350.699 401.876 352.023Z" fill="white"/>
<path fill-rule="evenodd" clip-rule="evenodd" d="M453.007 316.328C453.007 318.207 451.586 319.731 449.832 319.731C448.079 319.731 446.658 318.207 446.658 316.328C446.658 314.448 448.079 312.925 449.832 312.925C451.586 312.925 453.007 314.448 453.007 316.328Z" fill="white"/>
<path fill-rule="evenodd" clip-rule="evenodd" d="M427.454 326.719C427.454 328.598 426.033 330.122 424.28 330.122C422.527 330.122 421.106 328.598 421.106 326.719C421.106 324.84 422.527 323.316 424.28 323.316C426.033 323.316 427.454 324.84 427.454 326.719Z" fill="white"/>
<path fill-rule="evenodd" clip-rule="evenodd" d="M435.73 349.818C435.73 350.603 435.136 351.24 434.403 351.24C433.671 351.24 433.077 350.603 433.077 349.818C433.077 349.032 433.671 348.395 434.403 348.395C435.136 348.395 435.73 349.032 435.73 349.818Z" fill="white"/>
<path fill-rule="evenodd" clip-rule="evenodd" d="M445.288 368.007C445.288 369.168 444.41 370.108 443.328 370.108C442.245 370.108 441.368 369.168 441.368 368.007C441.368 366.847 442.245 365.906 443.328 365.906C444.41 365.906 445.288 366.847 445.288 368.007Z" fill="white"/>
<path d="M399.511 372.668C399.694 372.481 399.983 372.488 400.157 372.684L400.241 372.781L400.304 372.856C400.419 372.994 400.552 373.158 400.702 373.349C401.127 373.893 401.599 374.541 402.107 375.295C403.554 377.444 405 380.008 406.349 382.982C410.199 391.47 412.507 401.552 412.507 413.191C412.507 413.462 412.303 413.681 412.05 413.681C411.798 413.681 411.593 413.462 411.593 413.191C411.593 401.706 409.318 391.769 405.527 383.41C404.202 380.488 402.783 377.973 401.366 375.869C400.9 375.178 400.466 374.579 400.074 374.073L400.001 373.979C399.89 373.837 399.789 373.711 399.698 373.6L399.584 373.463C399.541 373.413 399.512 373.378 399.496 373.36C399.321 373.165 399.328 372.854 399.511 372.668Z" fill="#253368"/>
<path d="M434.037 376.097C434.188 375.88 434.474 375.835 434.677 375.997C434.879 376.159 434.92 376.466 434.769 376.683C433.105 379.073 431.569 381.643 430.156 384.367C427.17 390.125 424.861 396.298 423.148 402.472C422.548 404.633 422.066 406.639 421.69 408.439L421.614 408.807C421.525 409.248 421.447 409.649 421.381 410.009L421.339 410.244L421.263 410.688C421.221 410.955 420.985 411.135 420.736 411.09C420.487 411.045 420.32 410.793 420.361 410.526L420.387 410.368C420.409 410.241 420.435 410.091 420.466 409.919L420.542 409.511C420.615 409.122 420.701 408.693 420.798 408.225L420.881 407.831C421.248 406.113 421.709 404.22 422.272 402.193C424.003 395.955 426.336 389.717 429.357 383.89C430.789 381.129 432.347 378.523 434.037 376.097Z" fill="#253368"/>
<path d="M442.023 314.971C442.198 315.151 442.211 315.444 442.057 315.64L442.037 315.664C442.028 315.674 442.009 315.696 441.979 315.73L441.867 315.861L441.802 315.939C441.605 316.174 441.376 316.457 441.118 316.788C440.378 317.737 439.552 318.879 438.663 320.215C436.116 324.037 433.567 328.641 431.188 334.031C427.226 343.005 424.141 353.241 422.271 364.747C420 378.719 419.624 393.983 421.483 410.549C421.513 410.817 421.334 411.061 421.084 411.094C420.833 411.126 420.605 410.934 420.575 410.666C418.706 394.005 419.084 378.645 421.37 364.579C423.255 352.984 426.366 342.664 430.362 333.612C432.765 328.168 435.341 323.514 437.919 319.645L438.118 319.347C438.913 318.167 439.656 317.141 440.333 316.268L440.417 316.16C440.66 315.848 440.878 315.577 441.07 315.347L441.121 315.285C441.181 315.213 441.234 315.15 441.282 315.095L441.377 314.986C441.552 314.79 441.841 314.784 442.023 314.971Z" fill="#253368"/>
<path d="M402.466 344.025C402.682 343.885 402.963 343.959 403.094 344.19L403.14 344.273C403.176 344.339 403.219 344.418 403.268 344.51L403.34 344.644C403.463 344.875 403.6 345.141 403.752 345.44L403.878 345.689C404.343 346.617 404.852 347.691 405.396 348.906L405.47 349.073C407.244 353.058 409.017 357.717 410.672 363.012C415.304 377.837 418.122 394.664 418.228 413.188C418.229 413.459 418.026 413.679 417.774 413.681C417.521 413.683 417.315 413.465 417.314 413.194C417.209 394.778 414.408 378.054 409.805 363.323C408.193 358.163 406.468 353.613 404.741 349.711L404.645 349.495C404.055 348.17 403.506 347.013 403.011 346.03L402.861 345.736C402.718 345.456 402.59 345.21 402.476 344.998L402.422 344.898L402.312 344.698C402.181 344.467 402.25 344.165 402.466 344.025Z" fill="#253368"/>
<path fill-rule="evenodd" clip-rule="evenodd" d="M437.638 437.493H398.136C396.001 437.493 394.253 435.62 394.253 433.331V402.435C394.253 400.146 396.001 398.273 398.136 398.273H437.638C439.773 398.273 441.521 400.146 441.521 402.435V433.331C441.521 435.62 439.773 437.493 437.638 437.493Z" fill="#253368"/>
<g clip-path="url(#clip0_23_109)">
<path d="M292.806 370.458L276.74 382.343H356.942L340.787 370.458H292.806Z" fill="#E4EBF7"/>
<path d="M340.787 382.332L356.942 382.343L340.787 370.458V382.332Z" fill="#A3B5D6"/>
<path d="M290.463 349.333L304.156 427.526C304.469 429.316 306.181 430.516 307.975 430.202L314.072 429.14C315.866 428.825 317.069 427.12 316.754 425.33L303.062 347.137L290.463 349.333Z" fill="#FFA940"/>
<path d="M292.311 336.068L290.465 349.341L303.062 347.145L297.166 335.222L292.311 336.068Z" fill="#FFE7BA"/>
<path d="M293.756 330.248C293.646 330.266 293.557 330.354 293.537 330.465L292.465 336.049L297.07 335.246L294.042 330.373C293.99 330.292 293.902 330.242 293.808 330.242C293.789 330.242 293.773 330.244 293.756 330.248Z" fill="#253368"/>
<path d="M294.265 348.716L308.518 430.108L313.661 429.211L299.409 347.817L294.265 348.716Z" fill="#FE9921"/>
<path d="M311.797 423.946L311.579 430.174C311.511 432.1 313.022 433.715 314.952 433.781C316.882 433.849 318.501 432.342 318.57 430.418L318.785 424.189L311.799 423.946H311.797Z" fill="#253368"/>
<path d="M318.196 330.744L317.811 332.947C317.726 333.429 318.052 333.89 318.535 333.973C319.019 334.057 319.479 333.734 319.564 333.25L319.949 331.047C320.034 330.564 319.71 330.105 319.225 330.02C319.174 330.013 319.122 330.007 319.071 330.007C318.647 330.007 318.271 330.31 318.196 330.744Z" fill="#50548B"/>
<path d="M298.707 418.219C298.392 420.01 299.597 421.716 301.393 422.028L305.009 422.656C306.805 422.967 308.514 421.769 308.825 419.977L322.043 344.269L311.924 342.51L298.707 418.219Z" fill="#597EF7"/>
<path d="M317.298 332.929L311.923 342.51L322.049 344.27L320.074 333.403C320.032 333.175 319.851 332.995 319.621 332.958L317.875 332.655C317.844 332.65 317.812 332.648 317.781 332.648C317.584 332.648 317.398 332.753 317.298 332.929Z" fill="#E4EBF7"/>
<path d="M275.108 341.005L271.627 343.42C271.229 343.695 271.082 344.214 271.275 344.657L273.386 349.478C273.609 349.993 274.209 350.226 274.725 350.002L278.536 348.343C279.052 348.117 279.288 347.519 279.063 347.005L276.624 341.43C276.503 341.152 276.261 340.943 275.967 340.86C275.878 340.836 275.784 340.823 275.694 340.823C275.486 340.823 275.283 340.884 275.108 341.005Z" fill="#FF7946"/>
<path d="M274.521 363.157L300.912 423.478L315.19 417.261L288.798 356.941L274.521 363.157Z" fill="#FF7946"/>
<path d="M274.521 363.157L276.832 368.437L291.109 362.222L288.798 356.941L274.521 363.157Z" fill="#253368"/>
<path d="M272.747 348.616L273.1 359.907L274.521 363.157L288.798 356.941L287.387 353.716L278.877 345.946L272.747 348.616Z" fill="#E4EBF7"/>
<path d="M273.097 359.963L274.519 363.212L288.794 356.994L287.372 353.747L273.097 359.963Z" fill="#F5F5F5"/>
<path d="M292.028 374.208L284.454 374.73C284.266 374.743 284.095 374.848 283.997 375.01C283.898 375.169 283.885 375.37 283.961 375.544L284.01 375.656C284.11 375.882 284.34 376.022 284.587 376.004L287.138 375.816C287.385 375.798 287.617 375.939 287.716 376.165L288.365 377.648C289.166 379.48 290.485 380.313 292.27 380.149C294.055 379.988 294.552 379.008 293.776 377.235L292.603 374.558C292.509 374.344 292.297 374.208 292.065 374.208C292.054 374.208 292.041 374.208 292.028 374.208ZM290.428 378.643C290.096 378.411 289.8 378.023 289.562 377.479L289.111 376.448C289.035 376.276 289.048 376.077 289.146 375.916C289.243 375.754 289.415 375.649 289.602 375.636L291.327 375.509C291.573 375.493 291.804 375.631 291.903 375.857L292.507 377.24C292.739 377.768 292.791 378.176 292.679 378.442C292.564 378.709 292.259 378.876 291.73 378.922C291.643 378.929 291.555 378.933 291.472 378.933C291.058 378.933 290.702 378.837 290.428 378.643Z" fill="white"/>
<path d="M294.974 380.973L287.484 381.687C287.3 381.706 287.133 381.811 287.039 381.97C286.943 382.13 286.932 382.327 287.004 382.496L288.989 387.033C289.092 387.266 289.336 387.406 289.59 387.377C289.772 387.356 289.936 387.248 290.028 387.09C290.12 386.93 290.131 386.737 290.056 386.568L288.766 383.617C288.695 383.446 288.706 383.251 288.8 383.091C288.894 382.933 289.059 382.827 289.244 382.81L290.662 382.682C290.912 382.658 291.148 382.796 291.249 383.025L292.625 386.168C292.729 386.401 292.974 386.542 293.228 386.515C293.41 386.493 293.572 386.384 293.666 386.225C293.756 386.066 293.767 385.872 293.694 385.703L292.618 383.244C292.544 383.073 292.557 382.878 292.651 382.72C292.745 382.562 292.911 382.456 293.095 382.437L294.289 382.318C294.539 382.294 294.777 382.43 294.878 382.66L296.339 385.995C296.442 386.23 296.685 386.368 296.939 386.338C297.124 386.316 297.287 386.21 297.378 386.048C297.47 385.885 297.479 385.69 297.4 385.521L295.56 381.316C295.466 381.103 295.258 380.969 295.029 380.969C295.011 380.969 294.992 380.971 294.974 380.973Z" fill="white"/>
<path d="M276.952 396.851V435.139C276.952 436.791 278.295 438.131 279.951 438.131H353.904C355.56 438.131 356.903 436.791 356.903 435.139V396.851H276.952Z" fill="#597EF7"/>
<path d="M276.952 388.119V410.427L356.903 404.066V388.119H276.952Z" fill="#3D60E0"/>
<g clip-path="url(#clip1_23_109)">
<path d="M322.733 387.237C327.576 390.027 333.855 388.233 336.748 383.233L341.99 374.176L333.217 369.123C328.374 366.333 322.095 368.127 319.202 373.127C316.308 378.126 317.89 384.448 322.733 387.237Z" fill="#0ACF83"/>
<path d="M340.221 336.806C343.125 331.789 349.411 329.982 354.254 332.771L363.027 337.824L352.509 356L343.735 350.947C338.892 348.158 337.318 341.822 340.221 336.806Z" fill="#F24E1E"/>
<path d="M363.027 337.824L371.801 342.878C376.643 345.667 378.218 352.002 375.314 357.019C372.411 362.035 366.125 363.843 361.282 361.053L352.509 356L363.027 337.824Z" fill="#FF7262"/>
<path d="M364.831 375.133C361.928 380.15 355.641 381.957 350.798 379.168C345.956 376.379 344.381 370.043 347.284 365.027C350.188 360.01 356.474 358.203 361.317 360.992C366.16 363.782 367.734 370.117 364.831 375.133Z" fill="#1ABCFE"/>
<path d="M329.738 354.921C332.641 349.904 338.928 348.097 343.771 350.886L352.544 355.939L342.025 374.115L333.252 369.062C328.409 366.272 326.835 359.937 329.738 354.921Z" fill="#A259FF"/>
</g>
<path d="M276.746 382.343L268.945 399.464C268.648 400.083 268.689 400.809 269.054 401.39C269.42 401.969 270.059 402.322 270.745 402.324H362.816C363.517 402.324 364.17 401.956 364.531 401.355C364.892 400.754 364.912 400.008 364.584 399.393L356.942 382.343H276.746Z" fill="#E4EBF7"/>
</g>
<g clip-path="url(#clip2_23_109)">
<g filter="url(#filter0_d_23_109)">
<path d="M326.943 295.761L326.943 295.524C326.943 292.262 329.588 289.617 332.85 289.617C336.112 289.617 338.757 292.262 338.757 295.524V295.761C338.757 299.023 336.112 301.667 332.85 301.667C329.588 301.667 326.943 299.023 326.943 295.761Z" fill="#597EF7"/>
</g>
</g>
<g filter="url(#filter1_d_23_109)">
<path d="M332.42 321.374L332.42 321.237C332.42 319.348 333.951 317.817 335.84 317.817C337.728 317.817 339.259 319.348 339.259 321.237V321.374C339.259 323.262 337.728 324.794 335.84 324.794C333.951 324.794 332.42 323.262 332.42 321.374Z" fill="#597EF7"/>
</g>
<g filter="url(#filter2_d_23_109)">
<path d="M306.948 314.084L306.948 313.732C306.948 311.786 308.526 310.208 310.472 310.208C312.417 310.208 313.995 311.786 313.995 313.732V314.084C313.995 316.03 312.417 317.608 310.472 317.608C308.526 317.608 306.948 316.03 306.948 314.084Z" fill="#597EF7"/>
</g>
<path fill-rule="evenodd" clip-rule="evenodd" d="M253.024 166.058L250.498 168.672C250.18 169.001 249.65 168.973 249.322 168.608L246.686 165.683C246.357 165.319 246.349 164.751 246.668 164.422L249.194 161.808C249.512 161.479 250.041 161.507 250.37 161.871L253.006 164.796C253.334 165.161 253.343 165.728 253.024 166.058Z" fill="#FAAD14"/>
<path fill-rule="evenodd" clip-rule="evenodd" d="M256.137 148.828L256.198 152.59C256.206 153.064 255.825 153.46 255.353 153.468L251.558 153.539C251.085 153.548 250.692 153.167 250.685 152.693L250.623 148.931C250.616 148.457 250.996 148.062 251.469 148.053L255.263 147.982C255.736 147.973 256.129 148.354 256.137 148.828Z" fill="#FAAD14"/>
<path fill-rule="evenodd" clip-rule="evenodd" d="M247.069 132.912L250.11 134.793C250.493 135.03 250.613 135.583 250.377 136.022L248.48 139.543C248.243 139.982 247.736 140.147 247.353 139.909L244.312 138.028C243.928 137.791 243.808 137.238 244.044 136.799L245.942 133.278C246.178 132.839 246.685 132.674 247.069 132.912Z" fill="#FAAD14"/>
<path fill-rule="evenodd" clip-rule="evenodd" d="M233.161 129.22L236.668 129.416C237.11 129.441 237.452 129.875 237.427 130.381L237.228 134.442C237.204 134.948 236.822 135.341 236.38 135.316L232.873 135.119C232.431 135.095 232.089 134.66 232.114 134.155L232.313 130.094C232.337 129.588 232.719 129.195 233.161 129.22Z" fill="#FAAD14"/>
<path fill-rule="evenodd" clip-rule="evenodd" d="M217.88 136.698L220.57 134.279C220.909 133.974 221.435 134.042 221.739 134.43L224.178 137.545C224.482 137.933 224.453 138.5 224.114 138.805L221.424 141.224C221.085 141.528 220.559 141.46 220.255 141.072L217.816 137.958C217.512 137.57 217.541 137.003 217.88 136.698Z" fill="#FAAD14"/>
<path fill-rule="evenodd" clip-rule="evenodd" d="M211.081 153.314L211.691 149.608C211.768 149.141 212.212 148.831 212.677 148.919L216.415 149.625C216.88 149.713 217.198 150.167 217.122 150.634L216.512 154.34C216.435 154.807 215.991 155.117 215.525 155.029L211.788 154.323C211.323 154.235 211.005 153.781 211.081 153.314Z" fill="#FAAD14"/>
<path d="M245.812 155.798C245.812 148.528 240.319 142.572 233.542 142.572C226.765 142.572 221.271 148.528 221.271 155.798C221.271 158.676 222.695 162.393 224.981 165.133C227.248 167.848 227.894 172.42 227.894 176.065L227.894 177.494L239.19 177.494L239.19 176.077C239.19 172.432 239.836 167.869 242.091 165.145C244.385 162.376 245.812 158.329 245.812 155.798Z" fill="#FFE58F"/>
<path d="M243.793 155.763C243.793 149.69 239.205 144.714 233.542 144.714C227.879 144.714 223.292 149.689 223.292 155.763C223.292 158.168 224.481 161.272 226.391 163.561C228.285 165.83 229.691 169.649 229.691 172.694L229.691 173.886L237.393 173.886L237.393 172.704C237.393 169.658 238.8 165.847 240.684 163.571C242.601 161.258 243.793 157.878 243.793 155.763L243.793 155.763Z" fill="#FAAD14"/>
<path d="M236.656 184.163L230.427 184.163C230.21 184.163 230.011 184.012 229.893 183.762L229.046 181.41L238.039 181.41L237.192 183.762C237.073 184.012 236.875 184.163 236.657 184.163L236.656 184.163Z" fill="#393D65"/>
<path d="M238.169 172.057L228.915 172.057C228.227 172.057 227.67 172.654 227.67 173.391L227.67 181.088C227.67 181.825 228.227 182.422 228.915 182.422L238.169 182.422C238.856 182.422 239.414 181.825 239.414 181.088L239.414 173.391C239.414 172.654 238.856 172.057 238.169 172.057Z" fill="#597EF7"/>
<path fill-rule="evenodd" clip-rule="evenodd" d="M227.537 175.1C227.537 175.012 227.603 174.941 227.685 174.941L234.301 174.941C234.383 174.941 234.45 175.012 234.45 175.1C234.45 175.188 234.383 175.259 234.301 175.259L227.685 175.259C227.603 175.259 227.537 175.188 227.537 175.1Z" fill="white"/>
<path fill-rule="evenodd" clip-rule="evenodd" d="M227.537 179.708C227.537 179.62 227.603 179.549 227.685 179.549L234.301 179.549C234.383 179.549 234.45 179.62 234.45 179.708C234.45 179.796 234.383 179.867 234.301 179.867L227.685 179.867C227.603 179.867 227.537 179.796 227.537 179.708Z" fill="white"/>
<path fill-rule="evenodd" clip-rule="evenodd" d="M232.611 177.404C232.611 177.316 232.678 177.245 232.76 177.245L239.376 177.245C239.458 177.245 239.524 177.316 239.524 177.404C239.524 177.492 239.458 177.563 239.376 177.563L232.76 177.563C232.678 177.563 232.611 177.492 232.611 177.404Z" fill="white"/>
<path d="M234.379 150.483L229.753 158.044C229.504 158.454 229.772 158.958 230.22 158.958L232.292 158.958L229.745 164.122C229.555 164.54 230.045 164.927 230.345 164.597L237.274 157.127C237.627 156.738 237.376 156.074 236.876 156.074L233.743 156.074L235.053 150.812C235.156 150.363 234.612 150.1 234.379 150.483Z" fill="white"/>
<g clip-path="url(#clip3_23_109)">
<path d="M399.411 271.043L411.77 259.328L415.802 267.185C418.378 272.343 418.229 277.294 415.593 281.335C414.598 282.748 413.591 283.646 412.556 284.367C413.678 283.822 415.746 283.041 417.43 283.656C419.873 284.549 421.169 285.77 423.716 288.53L427.705 293.592C427.705 293.592 415.301 298.303 415.066 298.025C412.973 298.432 410.193 298.766 407.681 298.221C405.793 297.812 404.054 296.905 402.868 295.159C399.1 294.758 398.226 293.381 400.243 291.025C400.435 290.803 400.646 290.584 400.876 290.371C400.267 289.678 399.548 288.852 398.717 287.893C396.627 285.125 395.524 281.793 395.655 278.633C395.764 275.977 396.737 273.622 398.396 271.93C398.711 271.609 399.049 271.313 399.411 271.043Z" fill="url(#paint0_linear_23_109)"/>
<path d="M404.96 289.07C410.151 286.272 412.314 287.252 414.596 288.704C416.879 290.153 420.893 295.55 421.962 297.27C421.962 297.27 415.43 301.102 408.615 302.065C403.985 302.13 403.42 300.62 400.125 297.055C397.132 293.537 395.129 290.872 394.118 289.063C395.7 291.417 399.315 291.418 404.96 289.07Z" fill="url(#paint1_linear_23_109)"/>
<path d="M409.096 270.346C413.019 276.506 413.079 280.802 409.715 285.145C409.166 286.476 401.992 293.002 403.625 300.242C403.28 300.375 400.459 297.195 395.158 290.704C392.812 287.021 391.181 284.762 390.975 281.439C390.768 278.116 392.965 273.832 394.593 271.489L402.285 261.093L409.096 270.346Z" fill="url(#paint2_linear_23_109)"/>
<path d="M405.286 288.904C405.719 288.666 406.081 288.505 406.191 288.452C406.782 288.171 407.405 287.927 407.683 287.844C404.164 293.162 402.756 297.408 403.458 300.581C403.158 300.46 401.539 298.611 400.727 297.738C397.361 293.844 395.161 290.927 394.09 289.01C395.897 291.18 399.286 291.584 405.286 288.904Z" fill="#FFB511"/>
</g>
<defs>
<filter id="filter0_d_23_109" x="322.943" y="289.617" width="19.8135" height="20.0502" filterUnits="userSpaceOnUse" color-interpolation-filters="sRGB">
<feFlood flood-opacity="0" result="BackgroundImageFix"/>
<feColorMatrix in="SourceAlpha" type="matrix" values="0 0 0 0 0 0 0 0 0 0 0 0 0 0 0 0 0 0 127 0" result="hardAlpha"/>
<feOffset dy="4"/>
<feGaussianBlur stdDeviation="2"/>
<feComposite in2="hardAlpha" operator="out"/>
<feColorMatrix type="matrix" values="0 0 0 0 0 0 0 0 0 0 0 0 0 0 0 0 0 0 0.25 0"/>
<feBlend mode="normal" in2="BackgroundImageFix" result="effect1_dropShadow_23_109"/>
<feBlend mode="normal" in="SourceGraphic" in2="effect1_dropShadow_23_109" result="shape"/>
</filter>
<filter id="filter1_d_23_109" x="326.368" y="315.724" width="18.9431" height="19.1625" filterUnits="userSpaceOnUse" color-interpolation-filters="sRGB">
<feFlood flood-opacity="0" result="BackgroundImageFix"/>
<feColorMatrix in="SourceAlpha" type="matrix" values="0 0 0 0 0 0 0 0 0 0 0 0 0 0 0 0 0 0 127 0" result="hardAlpha"/>
<feOffset dy="4"/>
<feGaussianBlur stdDeviation="2"/>
<feComposite in2="hardAlpha" operator="out"/>
<feColorMatrix type="matrix" values="0 0 0 0 0 0 0 0 0 0 0 0 0 0 0 0 0 0 0.25 0"/>
<feBlend mode="normal" in2="BackgroundImageFix" result="effect1_dropShadow_23_109"/>
<feBlend mode="normal" in="SourceGraphic" in2="effect1_dropShadow_23_109" result="shape"/>
</filter>
<filter id="filter2_d_23_109" x="300.834" y="307.989" width="19.2747" height="19.8388" filterUnits="userSpaceOnUse" color-interpolation-filters="sRGB">
<feFlood flood-opacity="0" result="BackgroundImageFix"/>
<feColorMatrix in="SourceAlpha" type="matrix" values="0 0 0 0 0 0 0 0 0 0 0 0 0 0 0 0 0 0 127 0" result="hardAlpha"/>
<feOffset dy="4"/>
<feGaussianBlur stdDeviation="2"/>
<feComposite in2="hardAlpha" operator="out"/>
<feColorMatrix type="matrix" values="0 0 0 0 0 0 0 0 0 0 0 0 0 0 0 0 0 0 0.25 0"/>
<feBlend mode="normal" in2="BackgroundImageFix" result="effect1_dropShadow_23_109"/>
<feBlend mode="normal" in="SourceGraphic" in2="effect1_dropShadow_23_109" result="shape"/>
</filter>
<linearGradient id="paint0_linear_23_109" x1="422.431" y1="276.098" x2="405.586" y2="289.213" gradientUnits="userSpaceOnUse">
<stop stop-color="#FFBA00"/>
<stop offset="1" stop-color="#FA5800"/>
</linearGradient>
<linearGradient id="paint1_linear_23_109" x1="398.48" y1="293.611" x2="422.951" y2="295.55" gradientUnits="userSpaceOnUse">
<stop stop-color="#FFF75D"/>
<stop offset="1" stop-color="#F89800"/>
</linearGradient>
<linearGradient id="paint2_linear_23_109" x1="402.27" y1="261.699" x2="398.197" y2="295.596" gradientUnits="userSpaceOnUse">
<stop stop-color="#FFF75D"/>
<stop offset="1" stop-color="#F89600"/>
</linearGradient>
<clipPath id="clip0_23_109">
<rect width="144.846" height="144.501" fill="white" transform="translate(251.491 311.733)"/>
</clipPath>
<clipPath id="clip1_23_109">
<rect width="72.0051" height="71.9193" fill="white" transform="matrix(0.866541 0.499106 -0.500895 0.865508 334.083 315.966)"/>
</clipPath>
<clipPath id="clip2_23_109">
<rect width="18.9016" height="19.2803" fill="white" transform="translate(323.399 286.002)"/>
</clipPath>
<clipPath id="clip3_23_109">
<rect width="48.5852" height="53.0555" fill="white" transform="matrix(-0.700059 0.714085 0.700059 0.714085 408.432 246.165)"/>
</clipPath>
</defs>
</svg>
